<svg width="349" height="258" viewBox="0 0 349 258" fill="none" xmlns="http://www.w3.org/2000/svg">
<g clip-path="url(#clip0_1839_8933)">
<path d="M315.374 256.805H241.525V254.539C241.525 252.571 242.307 250.684 243.698 249.293C245.09 247.902 246.977 247.12 248.944 247.12H307.955C309.923 247.12 311.81 247.902 313.201 249.293C314.592 250.684 315.374 252.571 315.374 254.539V256.805Z" fill="#E6E6E6"/>
<path d="M276.722 247.572L278.967 246.668C255.469 188.341 257.733 114.758 277.597 51.6366C279.956 44.3231 280.126 36.4793 278.086 29.0703C276.046 21.6614 271.885 15.0104 266.114 9.93559C254.585 -0.353038 238.69 -2.85943 224.63 3.39384C210.751 9.56731 208.838 20.3206 208.838 31.0215H211.26C211.26 19.5988 213.701 10.9053 225.614 5.60615C238.791 -0.254318 253.692 2.09632 264.502 11.7424C269.922 16.5087 273.831 22.7555 275.747 29.7143C277.663 36.6731 277.503 44.0403 275.287 50.9095C255.194 114.76 253.063 188.849 276.722 247.572Z" fill="#E6E6E6"/>
<path d="M210.654 66.7353C215.334 66.7353 219.129 62.9411 219.129 58.2608C219.129 53.5805 215.334 49.7864 210.654 49.7864C205.974 49.7864 202.18 53.5805 202.18 58.2608C202.18 62.9411 205.974 66.7353 210.654 66.7353Z" fill="#E6E6E6"/>
<path d="M197.603 73.0342V56.9772H200.099V73.0342C200.816 73.3239 201.409 73.8537 201.777 74.5327C202.145 75.2118 202.266 75.9978 202.119 76.7562C201.971 77.5145 201.564 78.1979 200.968 78.6892C200.372 79.1806 199.624 79.4493 198.851 79.4493C198.078 79.4493 197.33 79.1806 196.734 78.6892C196.138 78.1979 195.731 77.5145 195.583 76.7562C195.436 75.9978 195.556 75.2118 195.925 74.5327C196.293 73.8537 196.886 73.3239 197.603 73.0342Z" fill="#E6E6E6"/>
<path d="M185.534 44.6411C185.538 40.9499 187.006 37.4112 189.616 34.8011C192.226 32.1911 195.765 30.7229 199.456 30.7188H222.458C226.15 30.7188 229.692 32.1856 232.303 34.7965C234.914 37.4074 236.38 40.9486 236.38 44.6411C236.38 48.3335 234.914 51.8747 232.303 54.4856C229.692 57.0966 226.15 58.5634 222.458 58.5634H199.456C195.765 58.5592 192.226 57.091 189.616 54.481C187.006 51.871 185.538 48.3322 185.534 44.6411Z" fill="#FEB71C"/>
<path d="M153.125 130.857C155.434 101.31 167.242 87.2319 159.681 78.4036C152.439 69.9472 132.038 71.6941 118.936 79.8086C83.598 101.696 70.6514 188.928 116.126 231.548C159.339 272.048 241.236 259.077 259.436 225.928C263.683 218.194 267.056 204.635 260.841 196.423C245.41 176.037 189.308 212.963 164.365 189.867C149.582 176.179 151.857 147.072 153.125 130.857Z" fill="#3F3D56"/>
<path d="M180.138 116.178C179.279 116.572 178.609 117.287 178.269 118.168C177.929 119.05 177.947 120.029 178.318 120.898C178.397 121.073 178.489 121.242 178.595 121.402L171.01 131.53L174.795 137.186L183.686 122.19C184.315 121.698 184.765 121.012 184.964 120.239C185.163 119.465 185.101 118.647 184.786 117.913C184.603 117.497 184.34 117.121 184.012 116.807C183.683 116.492 183.296 116.246 182.873 116.081C182.449 115.916 181.997 115.836 181.543 115.846C181.088 115.856 180.64 115.955 180.224 116.138C180.195 116.151 180.166 116.164 180.138 116.178Z" fill="#FFB6B6"/>
<path d="M180.132 133.639C180.628 134.079 179.251 134.623 177.795 133.766C177.378 133.517 177.2 133.414 177.153 133.48C177.036 133.644 177.72 134.852 177.537 137.536C177.425 139.137 174.765 142.149 171.744 145.085C167.66 149.057 162.911 152.888 162.911 152.888L161.244 151.553L143.761 137.536L140.811 133.452C141.081 131.839 141.486 130.252 142.024 128.708C142.763 126.57 143.643 124.483 144.656 122.46C145.199 121.36 145.756 120.311 146.29 119.346L155.657 129.668L163.506 138.313C163.506 138.313 165.791 134.632 167.562 133.63C167.787 133.486 168.044 133.397 168.311 133.372C170.1 133.288 170.208 132.314 168.133 130.192C166.058 128.071 168.676 130.052 170.522 129.48C172.367 128.909 170.522 129.48 170.91 128.052C171.299 126.624 176.474 123.757 176.474 123.757L176.69 123.949L180.6 127.401L181.719 128.389C181.719 128.389 180.497 131.743 180.16 132.45C179.823 133.157 179.64 133.194 180.132 133.639Z" fill="#0A3697"/>
<path d="M283.219 198.698L283.41 193.532L263.575 190.339L263.294 197.962L283.219 198.698Z" fill="#FFB6B6"/>
<path d="M279.619 200.253L279.431 191.982L282.967 192.112L288.675 184.466C288.957 184.088 289.352 183.811 289.803 183.674C290.254 183.536 290.737 183.547 291.181 183.704C291.626 183.86 292.009 184.155 292.274 184.545C292.539 184.935 292.672 185.399 292.655 185.87L292.292 195.695L288.732 197.26L292.205 198.05L292.069 201.755L279.619 200.253Z" fill="#2F2E41"/>
<path d="M171.588 200.709L234.411 202.302C234.411 202.302 261.541 203.869 267.906 199.728L274.618 198.881L274.982 189.021C274.982 189.021 270.877 189.051 268.518 187.952C266.158 186.852 267.798 185.507 265.548 186.83C263.298 188.153 263.535 188.312 261.796 187.704C260.056 187.096 180.283 174.937 180.283 174.937L171.588 200.709Z" fill="#2F2E41"/>
<path d="M254.373 196.43L258.026 192.773L245.657 176.942L240.266 182.34L254.373 196.43Z" fill="#FFB6B6"/>
<path d="M250.676 193.249L256.163 187.057L258.667 189.558L268.052 187.835C268.516 187.75 268.994 187.815 269.418 188.021C269.842 188.227 270.189 188.563 270.408 188.981C270.627 189.398 270.707 189.874 270.637 190.34C270.566 190.806 270.348 191.237 270.015 191.571L263.067 198.527L259.393 197.253L261.402 200.194L258.782 202.817L250.676 193.249Z" fill="#2F2E41"/>
<path d="M146.802 166.303L147.427 180.821C148.162 197.912 166.984 208.256 181.579 199.333C181.848 199.168 182.118 198.998 182.389 198.821C182.389 198.821 187.922 197.336 187.754 194.982C187.586 192.629 188.938 191.484 190.134 192.126C191.33 192.767 206.992 170.54 206.992 170.54C206.992 170.54 239.532 186.772 246.711 190.593C246.711 190.593 253.46 180.04 252.971 180.151C252.482 180.261 212.715 152.428 212.715 152.428C212.715 152.428 206.236 145.871 198.2 150.2C198.032 150.836 198.175 150.858 198.175 150.858L171.628 172.49L167.877 165.366L146.802 166.303Z" fill="#2F2E41"/>
<path d="M171.833 148.153C171.782 148.824 171.687 149.49 171.547 150.148C171.356 151.1 171.048 152.025 170.629 152.902C170.629 152.902 170.629 153.881 168.756 157.159C166.882 160.437 169.224 159.032 170.629 161.468C172.034 163.898 170.629 162.779 169.07 164.343C168.621 164.798 168.302 165.366 168.146 165.986C167.99 166.606 168.004 167.256 168.184 167.87C168.184 167.87 148.065 167.884 144.318 166.479C140.572 165.074 139.719 157.159 143.077 156.377C146.43 155.595 142.061 154.817 140.089 153.014C138.117 151.211 142.061 148.261 142.061 148.261C142.061 148.261 140.436 145.455 140.572 136.037C140.591 135.171 140.671 134.307 140.81 133.452C141.081 131.839 141.486 130.252 142.023 128.708C142.763 126.57 143.642 124.483 144.655 122.46C145.199 121.36 145.756 120.311 146.29 119.346C146.374 119.196 146.454 119.051 146.538 118.906C147.554 117.107 148.482 115.637 149.095 114.695C149.568 113.965 149.854 113.553 149.854 113.553L153.263 107.623L164.644 112.958L163.998 121.683L165.96 128.263L166.864 131.293L167.562 133.63L168.639 137.25C168.639 137.25 168.344 137.264 168.695 137.747C170.313 139.897 171.361 142.421 171.744 145.085C171.879 146.102 171.908 147.13 171.833 148.153Z" fill="#FEB71C"/>
<path d="M204.698 149.093L204.484 149.024L177.246 140.253L187.283 107.324C187.483 106.668 187.829 106.066 188.295 105.563C188.761 105.061 189.336 104.671 189.975 104.423C190.614 104.174 191.301 104.074 191.984 104.13C192.667 104.186 193.329 104.396 193.919 104.745L211.326 115.029C212.703 115.842 213.752 117.113 214.287 118.621C214.823 120.129 214.812 121.776 214.255 123.277L204.698 149.093Z" fill="#2F2E41"/>
<path d="M204.809 151.187L177.351 142.345L187.388 109.415C187.588 108.76 187.934 108.158 188.401 107.655C188.867 107.153 189.441 106.763 190.08 106.514C190.719 106.266 191.406 106.166 192.089 106.222C192.773 106.278 193.434 106.488 194.024 106.836L212.262 115.942C215.002 117.56 214.938 121.749 213.666 125.186L204.809 151.187Z" fill="#0A3697"/>
<path d="M202.059 153.57C201.427 153.927 200.728 154.148 200.005 154.22C199.283 154.292 198.553 154.213 197.863 153.987L180.313 148.335C178.966 147.896 177.845 146.947 177.189 145.691C176.533 144.436 176.393 142.974 176.8 141.617L185.599 112.75C185.775 112.173 186.064 111.638 186.45 111.174C186.836 110.711 187.31 110.329 187.845 110.051C188.38 109.773 188.965 109.605 189.566 109.557C190.167 109.508 190.772 109.58 191.345 109.768L209.532 115.74C210.399 116.024 211.2 116.48 211.887 117.079C212.575 117.678 213.136 118.409 213.536 119.228C213.937 120.048 214.169 120.939 214.219 121.85C214.269 122.761 214.136 123.672 213.828 124.531L204.42 150.759C203.998 151.95 203.16 152.948 202.059 153.57Z" fill="#3F3D56"/>
<path d="M164.001 107.725C170.943 107.725 176.571 102.097 176.571 95.1542C176.571 88.2117 170.943 82.5837 164.001 82.5837C157.058 82.5837 151.43 88.2117 151.43 95.1542C151.43 102.097 157.058 107.725 164.001 107.725Z" fill="#FFB6B6"/>
<path d="M121.493 107.914C122.647 110.15 124.538 111.918 126.847 112.919C127.768 113.338 128.737 113.645 129.732 113.832C130.013 112.716 130.463 111.651 131.067 110.671C130.866 111.775 130.866 112.906 131.067 114.01C132.583 114.134 134.108 113.944 135.547 113.454C136.961 112.973 138.243 112.169 139.292 111.106C140.341 110.043 141.128 108.751 141.591 107.331C142.592 103.999 141.514 100.44 141.429 96.962C141.341 93.4837 142.993 89.3234 146.446 88.893C149.075 88.5647 148.75 88.8196 150.64 90.6773C147.997 93.6134 154.44 106.617 157.898 106.043C159.853 105.718 161.291 104.166 161.678 104.22C163.657 109.068 157.702 115.944 162.425 118.202L162.075 117.738C159.603 113.654 166.918 106.755 164.446 102.671C163.757 101.528 163.04 100.189 163.466 98.925C163.871 97.7232 165.921 97.3429 166.353 98.4367C165.65 95.9297 167.613 92.9872 170.219 92.7314C172.535 92.5029 172.401 93.163 174.609 93.7651C174.891 92.814 175.298 91.9044 175.818 91.0597C175.642 92.0233 175.62 93.0088 175.754 93.9793C176.55 94.0743 177.356 93.9038 178.045 93.4943C180.084 92.272 180.145 89.117 178.744 87.1968C177.341 85.2763 174.991 84.328 172.723 83.6105C172.702 78.8153 159.8 76.5197 157.426 80.978C157.182 77.3682 153.045 74.9366 149.48 75.5498C145.915 76.163 143.103 79.0212 141.389 82.207C139.675 85.3902 138.824 88.9546 137.569 92.3453C136.314 95.736 134.52 99.117 131.515 101.129C128.511 103.138 124.045 103.321 121.537 100.716C120.965 101.828 120.663 103.059 120.655 104.31C120.647 105.56 120.934 106.795 121.493 107.914Z" fill="#2F2E41"/>
<path d="M134.391 165.398C134.651 165.19 134.933 165.011 135.233 164.865C140.044 162.47 155.007 156.255 166.706 156.51C189.217 157 217.865 181.844 211.198 198.527C206.124 211.222 180.902 218.444 162.491 212.668C136.698 204.575 126.518 171.676 134.391 165.398Z" fill="#3F3D56"/>
<path d="M40.9394 256.853C33.5838 255.465 27.0727 222.327 41.5447 206.006C46.503 200.414 52.6879 197.981 60.9149 195.716C108.267 182.679 144.383 195.104 149.236 198.137C154.079 201.164 162.568 246.766 151.713 253.221C145.604 256.853 133.498 258.669 127.5 254.432C118.674 248.197 133.488 232.025 126.895 221.139C119.412 208.786 80.0093 204.625 60.2547 216.902C39.1786 230 82.6515 264.722 40.9394 256.853Z" fill="#F2F2F2"/>
<path d="M90.1181 200.51H62.0169C55.0799 193.862 50.1199 187.455 54.0909 182.137C54.0909 180.608 54.6983 179.142 55.7793 178.061C56.8603 176.98 58.3265 176.372 59.8553 176.372H92.2797C93.8085 176.372 95.2747 176.98 96.3557 178.061C97.4367 179.142 98.044 180.608 98.044 182.137C99.556 188.197 96.8549 194.322 90.1181 200.51Z" fill="#CCCCCC"/>
<path d="M85.0716 169.116C84.805 169.128 84.541 169.058 84.3155 168.915C84.09 168.772 83.9138 168.564 83.8108 168.317C83.7079 168.071 83.6831 167.799 83.7398 167.538C83.7966 167.278 83.9322 167.04 84.1282 166.859L84.2174 166.505C84.2056 166.476 84.1938 166.448 84.1819 166.42C83.9133 165.785 83.4632 165.244 82.8882 164.865C82.3131 164.485 81.6388 164.284 80.9498 164.287C80.2608 164.289 79.588 164.495 79.0158 164.879C78.4436 165.263 77.9975 165.807 77.7336 166.443C76.6789 168.984 75.3362 171.528 75.0056 174.214C74.8599 175.401 74.9214 176.604 75.1871 177.77C72.71 172.367 71.4237 166.494 71.4155 160.55C71.4149 159.058 71.4978 157.568 71.6637 156.085C71.8008 154.87 71.991 153.664 72.2343 152.466C73.5619 145.966 76.4125 139.874 80.5519 134.689C82.5553 133.596 84.1755 131.915 85.1942 129.873C85.5632 129.139 85.824 128.355 85.9685 127.546C85.7425 127.576 85.1164 124.134 85.2868 123.923C84.9719 123.445 84.4081 123.207 84.0642 122.741C82.3535 120.421 79.9965 120.826 78.7661 123.978C76.1376 125.305 76.1122 127.505 77.725 129.621C78.7511 130.967 78.8921 132.789 79.7924 134.23C79.6997 134.348 79.6034 134.463 79.5108 134.582C77.8176 136.759 76.3419 139.097 75.1048 141.562C75.4056 138.8 75.0465 136.007 74.0571 133.411C73.0543 130.992 71.1747 128.955 69.5195 126.863C67.5313 124.351 63.4544 125.447 63.1041 128.632C63.1007 128.663 63.0974 128.694 63.0942 128.724C63.34 128.863 63.5807 129.01 63.8161 129.166C64.112 129.364 64.3412 129.646 64.4738 129.976C64.6064 130.306 64.6361 130.669 64.5592 131.016C64.4822 131.363 64.3021 131.679 64.0425 131.923C63.7829 132.166 63.4558 132.325 63.1042 132.379L63.0682 132.385C63.1558 133.271 63.3106 134.149 63.5313 135.012C61.4079 143.224 65.9923 146.214 72.5381 146.349C72.6826 146.423 72.8234 146.497 72.9679 146.567C71.7249 150.09 70.9453 153.759 70.6486 157.482C70.4806 159.679 70.4905 161.886 70.6782 164.081L70.6671 164.003C70.1928 161.562 68.8907 159.36 66.9806 157.767C64.1437 155.437 60.1357 154.579 57.0752 152.706C56.7499 152.497 56.3717 152.385 55.9852 152.384C55.5987 152.384 55.2199 152.493 54.8937 152.7C54.5674 152.908 54.3072 153.204 54.1437 153.554C53.9803 153.904 53.9204 154.294 53.9712 154.677C53.9753 154.705 53.9795 154.732 53.9837 154.759C54.4399 154.945 54.8841 155.159 55.3138 155.4C55.5596 155.539 55.8003 155.686 56.0357 155.842C56.3316 156.039 56.5608 156.322 56.6933 156.652C56.8259 156.982 56.8557 157.344 56.7787 157.692C56.7018 158.039 56.5217 158.355 56.2621 158.598C56.0025 158.842 55.6755 159.001 55.3238 159.055L55.2878 159.06C55.2619 159.064 55.2396 159.068 55.2137 159.072C55.9933 160.933 57.0874 162.646 58.4481 164.136C59.7759 171.305 65.4785 171.985 71.5785 169.897H71.5822C72.2515 172.806 73.2212 175.637 74.4758 178.345H84.8126C84.8497 178.23 84.883 178.111 84.9163 177.996C83.9595 178.057 82.999 177.999 82.0561 177.826C82.823 176.885 83.5899 175.937 84.3569 174.995C84.374 174.978 84.3901 174.959 84.405 174.94C84.7941 174.458 85.1868 173.98 85.5758 173.499L85.576 173.498C85.5968 172.022 85.427 170.549 85.0716 169.116Z" fill="#CCCCCC"/>
<path d="M120.328 199.005C120.5 199.504 120.825 199.936 121.257 200.239C121.69 200.542 122.207 200.7 122.734 200.69L133.043 200.425C133.575 200.414 134.089 200.232 134.508 199.906C134.928 199.579 135.23 199.125 135.371 198.613L136.83 183.013C137.347 183.248 137.911 183.363 138.479 183.352C139.476 183.327 140.422 182.907 141.109 182.185C141.796 181.462 142.168 180.496 142.143 179.499C142.118 178.502 141.698 177.556 140.975 176.869C140.253 176.182 139.287 175.81 138.29 175.835C138.063 175.834 137.837 175.858 137.614 175.905C137.373 175.644 137.079 175.436 136.753 175.295C136.426 175.155 136.074 175.084 135.718 175.087L119.86 175.497C119.729 175.501 119.598 175.518 119.469 175.545C119.121 175.61 118.792 175.749 118.502 175.952C118.212 176.155 117.969 176.417 117.79 176.722C117.61 177.027 117.498 177.366 117.46 177.718C117.423 178.07 117.461 178.426 117.573 178.761L120.328 199.005ZM137.129 181.954L138.167 178.237C138.285 177.807 138.288 177.354 138.175 176.923C138.225 176.923 138.27 176.899 138.32 176.899C139.032 176.885 139.72 177.153 140.234 177.645C140.749 178.137 141.047 178.813 141.063 179.525C141.08 180.237 140.814 180.926 140.323 181.441C139.833 181.957 139.157 182.257 138.446 182.276C137.986 182.29 137.53 182.179 137.129 181.954Z" fill="#CCCCCC"/>
<path d="M119.469 175.545C119.807 177.477 123.605 178.835 128.172 178.599C132.372 178.405 135.806 176.931 136.435 175.183C136.202 175.114 135.96 175.082 135.717 175.087L119.86 175.497C119.728 175.501 119.597 175.518 119.469 175.545Z" fill="white"/>
<path d="M0.552095 257.584L347.735 257.727C347.881 257.727 348.022 257.669 348.125 257.565C348.229 257.461 348.287 257.321 348.287 257.175C348.287 257.028 348.229 256.888 348.125 256.784C348.022 256.681 347.881 256.623 347.735 256.623L0.552095 256.48C0.40567 256.48 0.265243 256.538 0.161705 256.642C0.0581662 256.745 0 256.886 0 257.032C0 257.179 0.0581662 257.319 0.161705 257.422C0.265243 257.526 0.40567 257.584 0.552095 257.584Z" fill="#CACACA"/>
<path d="M195.276 134.196C194.332 134.231 193.438 134.632 192.786 135.315C192.133 135.998 191.773 136.909 191.781 137.854C191.786 138.046 191.807 138.237 191.843 138.426L180.947 144.859L182.266 151.536L196.239 141.11C197.01 140.899 197.688 140.438 198.17 139.801C198.651 139.163 198.908 138.384 198.899 137.586C198.891 137.131 198.792 136.683 198.61 136.266C198.428 135.85 198.165 135.473 197.838 135.158C197.51 134.843 197.124 134.596 196.7 134.43C196.277 134.265 195.825 134.184 195.371 134.193C195.339 134.194 195.307 134.195 195.276 134.196Z" fill="#FFB6B6"/>
<path d="M186.35 149.531C186.059 149.141 185.934 148.978 185.867 149.022C185.697 149.125 185.861 150.505 184.661 152.909C182.971 156.287 165.259 161.461 165.259 161.461L163.078 157.468L153.485 139.923L150.179 125.859C150.063 125.369 150.007 124.866 150.011 124.363C152.959 122.288 156.09 120.486 159.365 118.979C160.673 119.721 161.671 120.909 162.175 122.327L168.778 140.841L171.413 148.233C171.413 148.233 176.061 144.91 177.747 145.52C179.43 146.134 179.908 145.273 178.808 142.517C177.708 139.762 179.359 142.598 181.281 142.779C183.207 142.962 181.281 142.779 182.191 141.609C183.101 140.44 188.981 139.782 188.981 139.782L189.106 140.043L191.385 144.731L192.038 146.078C192.038 146.078 189.622 148.699 189.039 149.222C188.453 149.748 188.272 149.712 188.559 150.311C188.842 150.908 187.363 150.881 186.35 149.531Z" fill="#FEB71C"/>
</g>
<defs>
<clipPath id="clip0_1839_8933">
<rect width="348.287" height="258" fill="white"/>
</clipPath>
</defs>
</svg>
